<svg clip-rule="evenodd" fill-rule="evenodd" stroke-linejoin="round" stroke-miterlimit="2" viewBox="0 0 560 400" xmlns="http://www.w3.org/2000/svg"><g transform="matrix(2.10708 0 0 2.10708 94.438 136.04)"><g fill="#f15a23"><path d="m2.64 22.756 14.413 18.182-14.413 11.944z"/><path d="m8.441 52.882 10.845-9.073 7.496 9.073z"/><path d="m2.64 13.027 3.761 4.758 15.465 19.325 5.012-3.99s-4.16-4.898-6.954-10.364c-5.462-10.686-1.595-17.339-1.595-17.339h-15.689z"/><path d="m24.071 40.094 5.104-4.216s4.874 6.416 10.526 7.931c7.407 1.985 10.686-2.871 10.686-2.871v11.944h-16.268l3.668-3.172s-1.914 1.276-6.595-1.966c-2.762-1.914-7.121-7.65-7.121-7.65z"/><path d="m24.54 5.382s-1.628 2.218-.469 7.645c1.239 5.801 6.165 11.94 6.154 11.802 0 0 .316-6.096 3.894-9.673 7.625-7.625 16.268-3.086 16.268-3.086v-6.653z"/><path d="m50.387 20.109s-4.822-4.131-9.015-4.131c-5.363 0-8.29 4.63-8.29 7.989 0 4.892 2.348 7.61 4.705 9.967 3.387 3.387 7.508 7.04 12.6 4.1z"/></g><path d="m105.304 5.88h11.379s10.081 15.263 15.035 21.569 10.286 13.489 10.286 13.489v-31.64c0-1.367-3.588-3.418-3.588-3.418h13.122s-4.305 1.769-4.305 3.418v46.029s-4.132-2.291-8.817-7.735c-5.263-6.116-23.988-30.811-23.988-30.811v31.985c0 1.638 3.588 4.116 3.588 4.116h-12.712s3.486-2.498 3.486-4.116v-39.468c0-1.453-3.486-3.418-3.486-3.418z" fill="#005e6a"/><path d="m158.887 5.88h14.605s-3.922 1.857-3.922 3.418v39.468c0 1.705 3.922 4.116 3.922 4.116h-14.605s3.652-2.465 3.652-4.116v-39.468c0-1.501-3.652-3.418-3.652-3.418z" fill="#005e6a"/><path d="m62.337 5.88s3.786 1.888 3.786 3.418v39.468c0 1.678-3.786 4.116-3.786 4.116h21.636c1.352 0 16.497-2.477 16.497-14.153s-11.764-12.77-11.764-12.77 7.167-1.992 7.167-9.981c0-8.611-10.548-10.098-11.9-10.098zm11.494 19.305v-14.694h8.789c1.353 0 6.086 1.579 6.086 7.437 0 4.828-4.733 7.257-6.086 7.257zm0 3.854h10.142c1.352 0 9.33 2.073 9.33 8.995 0 7.057-7.978 9.558-9.33 9.558h-10.142z" fill="#005e6a"/></g></svg>