<svg xmlns="http://www.w3.org/2000/svg" viewBox="0 0 1440 320"><path fill="#524BAD" fill-opacity="1" d="M0,0L34.3,10.7C68.6,21,137,43,206,85.3C274.3,128,343,192,411,213.3C480,235,549,213,617,192C685.7,171,754,149,823,160C891.4,171,960,213,1029,224C1097.1,235,1166,213,1234,170.7C1302.9,128,1371,64,1406,32L1440,0L1440,320L1405.7,320C1371.4,320,1303,320,1234,320C1165.7,320,1097,320,1029,320C960,320,891,320,823,320C754.3,320,686,320,617,320C548.6,320,480,320,411,320C342.9,320,274,320,206,320C137.1,320,69,320,34,320L0,320Z"></path></svg>
